# xmcd CD database file
#
# Track frame offsets:
#	150
#	32020
#	63240
#	87232
#	117197
#	163415
#	178947
#	204462
#	222131
#
# Disc length: 3380 seconds
#
# Revision: 0
# Processed by: cddbd v1.5.2PL0 Copyright (c) Steve Scherf et al.
# Submitted via: CDex 1.70beta2
#
DISCID=7d0d3209
DTITLE=Tony Arco Trio - Rather Odd
DYEAR=1900
DGENRE=Jazz
TTITLE0=Secret Love
TTITLE1=Skylark
TTITLE2=Billie's Bounce
TTITLE3=Cissy Strut
TTITLE4=Never Let Me Go
TTITLE5=What is This Thing Called Love
TTITLE6=Lullaby For The Loved One
TTITLE7=One Finger Snap
TTITLE8=Resolution
EXTD=
EXTT0=
EXTT1=
EXTT2=
EXTT3=
EXTT4=
EXTT5=
EXTT6=
EXTT7=
EXTT8=
PLAYORDER=
